<svg xmlns="http://www.w3.org/2000/svg" viewBox="0 0 1100 420" width="1100" height="420" font-family="Consolas,Menlo,monospace" font-size="13">
<rect width="1100" height="420" fill="#fbfcfe"/>
<text x="150" y="26" font-size="16" font-weight="bold" fill="#1f2d3d">HTSU 硬件时间戳: SOF 锁存 t2/t3, EOF 算 residence</text>
<text x="1070" y="26" text-anchor="end" font-size="11" fill="#8a94a6">仿真时间 0..204000 tick</text>
<line x1="150.0" y1="40" x2="150.0" y2="400" stroke="#e6eaf0" stroke-width="1"/>
<text x="150.0" y="414" font-size="9" fill="#aab2c0" text-anchor="middle">0</text>
<line x1="242.0" y1="40" x2="242.0" y2="400" stroke="#e6eaf0" stroke-width="1"/>
<text x="242.0" y="414" font-size="9" fill="#aab2c0" text-anchor="middle">20400</text>
<line x1="334.0" y1="40" x2="334.0" y2="400" stroke="#e6eaf0" stroke-width="1"/>
<text x="334.0" y="414" font-size="9" fill="#aab2c0" text-anchor="middle">40800</text>
<line x1="426.0" y1="40" x2="426.0" y2="400" stroke="#e6eaf0" stroke-width="1"/>
<text x="426.0" y="414" font-size="9" fill="#aab2c0" text-anchor="middle">61200</text>
<line x1="518.0" y1="40" x2="518.0" y2="400" stroke="#e6eaf0" stroke-width="1"/>
<text x="518.0" y="414" font-size="9" fill="#aab2c0" text-anchor="middle">81600</text>
<line x1="610.0" y1="40" x2="610.0" y2="400" stroke="#e6eaf0" stroke-width="1"/>
<text x="610.0" y="414" font-size="9" fill="#aab2c0" text-anchor="middle">102000</text>
<line x1="702.0" y1="40" x2="702.0" y2="400" stroke="#e6eaf0" stroke-width="1"/>
<text x="702.0" y="414" font-size="9" fill="#aab2c0" text-anchor="middle">122400</text>
<line x1="794.0" y1="40" x2="794.0" y2="400" stroke="#e6eaf0" stroke-width="1"/>
<text x="794.0" y="414" font-size="9" fill="#aab2c0" text-anchor="middle">142800</text>
<line x1="886.0" y1="40" x2="886.0" y2="400" stroke="#e6eaf0" stroke-width="1"/>
<text x="886.0" y="414" font-size="9" fill="#aab2c0" text-anchor="middle">163200</text>
<line x1="978.0" y1="40" x2="978.0" y2="400" stroke="#e6eaf0" stroke-width="1"/>
<text x="978.0" y="414" font-size="9" fill="#aab2c0" text-anchor="middle">183600</text>
<line x1="1070.0" y1="40" x2="1070.0" y2="400" stroke="#e6eaf0" stroke-width="1"/>
<text x="1070.0" y="414" font-size="9" fill="#aab2c0" text-anchor="middle">204000</text>
<line x1="150" y1="81.0" x2="1070" y2="81.0" stroke="#eef1f5" stroke-width="1"/>
<text x="10" y="85.0" font-size="12" fill="#33414f" font-weight="bold">rx_sof</text>
<rect x="10" y="50" width="6" height="14" fill="#0072BD"/>
<path d="M150.0 81.0 L150.0 81.0 L240.2 81.0 L240.2 59.0 L276.3 59.0 L276.3 81.0 L456.7 81.0 L456.7 59.0 L492.7 59.0 L492.7 81.0 L1070.0 81.0" fill="none" stroke="#0072BD" stroke-width="1.6"/>
<line x1="150" y1="167.0" x2="1070" y2="167.0" stroke="#eef1f5" stroke-width="1"/>
<text x="10" y="171.0" font-size="12" fill="#33414f" font-weight="bold">tx_sof</text>
<rect x="10" y="136" width="6" height="14" fill="#2ca02c"/>
<path d="M150.0 167.0 L150.0 167.0 L817.5 167.0 L817.5 145.0 L853.5 145.0 L853.5 167.0 L1070.0 167.0" fill="none" stroke="#2ca02c" stroke-width="1.6"/>
<line x1="150" y1="253.0" x2="1070" y2="253.0" stroke="#eef1f5" stroke-width="1"/>
<text x="10" y="257.0" font-size="12" fill="#33414f" font-weight="bold">residence_ns</text>
<rect x="10" y="222" width="6" height="14" fill="#D95319"/>
<path d="M150.0 280.0 L997.8 280.0 L997.8 226.0 L1070.0 226.0" fill="none" stroke="#D95319" stroke-width="1.6"/>
<text x="1070" y="230" text-anchor="end" font-size="9" fill="#aab2c0">[0..100]</text>
<line x1="150" y1="339.0" x2="1070" y2="339.0" stroke="#eef1f5" stroke-width="1"/>
<text x="10" y="343.0" font-size="12" fill="#33414f" font-weight="bold">residence_vld</text>
<rect x="10" y="308" width="6" height="14" fill="#9467bd"/>
<path d="M150.0 339.0 L150.0 339.0 L997.8 339.0 L997.8 317.0 L1033.9 317.0 L1033.9 339.0 L1070.0 339.0" fill="none" stroke="#9467bd" stroke-width="1.6"/>
</svg>