<svg xmlns="http://www.w3.org/2000/svg" viewBox="0 0 1100 334" width="1100" height="334" font-family="Consolas,Menlo,monospace" font-size="13">
<rect width="1100" height="334" fill="#fbfcfe"/>
<text x="150" y="26" font-size="16" font-weight="bold" fill="#1f2d3d">BMCA 最佳主时钟选举: Announce -> 角色(2:Passive/1:Slave/0:Master)</text>
<text x="1070" y="26" text-anchor="end" font-size="11" fill="#8a94a6">仿真时间 0..246000 tick</text>
<line x1="150.0" y1="40" x2="150.0" y2="314" stroke="#e6eaf0" stroke-width="1"/>
<text x="150.0" y="328" font-size="9" fill="#aab2c0" text-anchor="middle">0</text>
<line x1="242.0" y1="40" x2="242.0" y2="314" stroke="#e6eaf0" stroke-width="1"/>
<text x="242.0" y="328" font-size="9" fill="#aab2c0" text-anchor="middle">24600</text>
<line x1="334.0" y1="40" x2="334.0" y2="314" stroke="#e6eaf0" stroke-width="1"/>
<text x="334.0" y="328" font-size="9" fill="#aab2c0" text-anchor="middle">49200</text>
<line x1="426.0" y1="40" x2="426.0" y2="314" stroke="#e6eaf0" stroke-width="1"/>
<text x="426.0" y="328" font-size="9" fill="#aab2c0" text-anchor="middle">73800</text>
<line x1="518.0" y1="40" x2="518.0" y2="314" stroke="#e6eaf0" stroke-width="1"/>
<text x="518.0" y="328" font-size="9" fill="#aab2c0" text-anchor="middle">98400</text>
<line x1="610.0" y1="40" x2="610.0" y2="314" stroke="#e6eaf0" stroke-width="1"/>
<text x="610.0" y="328" font-size="9" fill="#aab2c0" text-anchor="middle">123000</text>
<line x1="702.0" y1="40" x2="702.0" y2="314" stroke="#e6eaf0" stroke-width="1"/>
<text x="702.0" y="328" font-size="9" fill="#aab2c0" text-anchor="middle">147600</text>
<line x1="794.0" y1="40" x2="794.0" y2="314" stroke="#e6eaf0" stroke-width="1"/>
<text x="794.0" y="328" font-size="9" fill="#aab2c0" text-anchor="middle">172200</text>
<line x1="886.0" y1="40" x2="886.0" y2="314" stroke="#e6eaf0" stroke-width="1"/>
<text x="886.0" y="328" font-size="9" fill="#aab2c0" text-anchor="middle">196800</text>
<line x1="978.0" y1="40" x2="978.0" y2="314" stroke="#e6eaf0" stroke-width="1"/>
<text x="978.0" y="328" font-size="9" fill="#aab2c0" text-anchor="middle">221400</text>
<line x1="1070.0" y1="40" x2="1070.0" y2="314" stroke="#e6eaf0" stroke-width="1"/>
<text x="1070.0" y="328" font-size="9" fill="#aab2c0" text-anchor="middle">246000</text>
<line x1="150" y1="81.0" x2="1070" y2="81.0" stroke="#eef1f5" stroke-width="1"/>
<text x="10" y="85.0" font-size="12" fill="#33414f" font-weight="bold">announce_rx</text>
<rect x="10" y="50" width="6" height="14" fill="#0072BD"/>
<path d="M150.0 81.0 L150.0 81.0 L284.6 81.0 L284.6 59.0 L344.5 59.0 L344.5 81.0 L434.2 81.0 L434.2 59.0 L494.1 59.0 L494.1 81.0 L583.8 81.0 L583.8 59.0 L643.7 59.0 L643.7 81.0 L733.4 81.0 L733.4 59.0 L793.3 59.0 L793.3 81.0 L1070.0 81.0" fill="none" stroke="#0072BD" stroke-width="1.6"/>
<line x1="150" y1="167.0" x2="1070" y2="167.0" stroke="#eef1f5" stroke-width="1"/>
<text x="10" y="171.0" font-size="12" fill="#33414f" font-weight="bold">port_role</text>
<rect x="10" y="136" width="6" height="14" fill="#D95319"/>
<path d="M150.0 194.0 L374.4 194.0 L374.4 167.0 L524.0 167.0 L524.0 194.0 L823.2 194.0 L823.2 140.0 L1070.0 140.0" fill="none" stroke="#D95319" stroke-width="1.6"/>
<text x="1070" y="144" text-anchor="end" font-size="9" fill="#aab2c0">[0..2]</text>
<line x1="150" y1="253.0" x2="1070" y2="253.0" stroke="#eef1f5" stroke-width="1"/>
<text x="10" y="257.0" font-size="12" fill="#33414f" font-weight="bold">is_gm</text>
<rect x="10" y="222" width="6" height="14" fill="#2ca02c"/>
<path d="M150.0 253.0 L150.0 231.0 L374.4 231.0 L374.4 253.0 L524.0 253.0 L524.0 231.0 L823.2 231.0 L823.2 253.0 L1070.0 253.0" fill="none" stroke="#2ca02c" stroke-width="1.6"/>
</svg>